<svg id="visual" viewBox="0 0 2200 1200" width="2200" height="1200" xmlns="http://www.w3.org/2000/svg" xmlns:xlink="http://www.w3.org/1999/xlink" version="1.1"><path d="M0 133L183.3 129C366.7 125 733.3 117 1100 119C1466.7 121 1833.3 133 2016.7 139L2200 145L2200 0L2016.7 0C1833.3 0 1466.7 0 1100 0C733.3 0 366.7 0 183.3 0L0 0Z" fill="#007392"></path><path d="M0 445L183.3 427C366.7 409 733.3 373 1100 357C1466.7 341 1833.3 345 2016.7 347L2200 349L2200 143L2016.7 137C1833.3 131 1466.7 119 1100 117C733.3 115 366.7 123 183.3 127L0 131Z" fill="#2d84a1"></path><path d="M0 589L183.3 575C366.7 561 733.3 533 1100 523C1466.7 513 1833.3 521 2016.7 525L2200 529L2200 347L2016.7 345C1833.3 343 1466.7 339 1100 355C733.3 371 366.7 407 183.3 425L0 443Z" fill="#4795b0"></path><path d="M0 685L183.3 669C366.7 653 733.3 621 1100 615C1466.7 609 1833.3 629 2016.7 639L2200 649L2200 527L2016.7 523C1833.3 519 1466.7 511 1100 521C733.3 531 366.7 559 183.3 573L0 587Z" fill="#5ea7c0"></path><path d="M0 817L183.3 799C366.7 781 733.3 745 1100 743C1466.7 741 1833.3 773 2016.7 789L2200 805L2200 647L2016.7 637C1833.3 627 1466.7 607 1100 613C733.3 619 366.7 651 183.3 667L0 683Z" fill="#74b9d0"></path><path d="M0 853L183.3 841C366.7 829 733.3 805 1100 807C1466.7 809 1833.3 837 2016.7 851L2200 865L2200 803L2016.7 787C1833.3 771 1466.7 739 1100 741C733.3 743 366.7 779 183.3 797L0 815Z" fill="#74b9d0"></path><path d="M0 949L183.3 941C366.7 933 733.3 917 1100 929C1466.7 941 1833.3 981 2016.7 1001L2200 1021L2200 863L2016.7 849C1833.3 835 1466.7 807 1100 805C733.3 803 366.7 827 183.3 839L0 851Z" fill="#74b9d0"></path><path d="M0 1009L183.3 1007C366.7 1005 733.3 1001 1100 1011C1466.7 1021 1833.3 1045 2016.7 1057L2200 1069L2200 1019L2016.7 999C1833.3 979 1466.7 939 1100 927C733.3 915 366.7 931 183.3 939L0 947Z" fill="#5ea7c0"></path><path d="M0 1117L183.3 1109C366.7 1101 733.3 1085 1100 1091C1466.7 1097 1833.3 1125 2016.7 1139L2200 1153L2200 1067L2016.7 1055C1833.3 1043 1466.7 1019 1100 1009C733.3 999 366.7 1003 183.3 1005L0 1007Z" fill="#4795b0"></path><path d="M0 1177L183.3 1173C366.7 1169 733.3 1161 1100 1161C1466.7 1161 1833.3 1169 2016.7 1173L2200 1177L2200 1151L2016.7 1137C1833.3 1123 1466.7 1095 1100 1089C733.3 1083 366.7 1099 183.3 1107L0 1115Z" fill="#2d84a1"></path><path d="M0 1201L183.3 1201C366.7 1201 733.3 1201 1100 1201C1466.7 1201 1833.3 1201 2016.7 1201L2200 1201L2200 1175L2016.7 1171C1833.3 1167 1466.7 1159 1100 1159C733.3 1159 366.7 1167 183.3 1171L0 1175Z" fill="#007392"></path></svg>