<svg xmlns="http://www.w3.org/2000/svg" xmlns:xlink="http://www.w3.org/1999/xlink" width="500" zoomAndPan="magnify" viewBox="0 0 375 374.999991" height="500" preserveAspectRatio="xMidYMid meet" version="1.2"><defs><clipPath id="2b2b330d52"><path d="M 7.957031 8.707031 L 368.542969 8.707031 L 368.542969 369.292969 L 7.957031 369.292969 Z M 7.957031 8.707031 "/></clipPath><clipPath id="ff4dd6cbcf"><path d="M 188.25 8.707031 C 88.675781 8.707031 7.957031 89.425781 7.957031 189 C 7.957031 288.574219 88.675781 369.292969 188.25 369.292969 C 287.824219 369.292969 368.542969 288.574219 368.542969 189 C 368.542969 89.425781 287.824219 8.707031 188.25 8.707031 Z M 188.25 8.707031 "/></clipPath><clipPath id="aa82a6d7e0"><path d="M 6 8 L 369 8 L 369 368.707031 L 6 368.707031 Z M 6 8 "/></clipPath><clipPath id="01a307bfd6"><path d="M 0 107 L 138 107 L 138 276 L 0 276 Z M 0 107 "/></clipPath><clipPath id="603a8f9a8a"><path d="M 61.480469 92.820312 L 161.328125 135.914062 L 93.863281 292.226562 L -5.984375 249.132812 Z M 61.480469 92.820312 "/></clipPath><clipPath id="41f74e10f7"><path d="M 61.480469 92.820312 L 161.328125 135.914062 L 93.863281 292.226562 L -5.984375 249.132812 Z M 61.480469 92.820312 "/></clipPath><clipPath id="adc4331886"><path d="M 61.480469 92.820312 L 161.144531 135.835938 L 93.683594 292.144531 L -5.984375 249.128906 Z M 61.480469 92.820312 "/></clipPath></defs><g id="c82660e496"><g clip-rule="nonzero" clip-path="url(#2b2b330d52)"><g clip-rule="nonzero" clip-path="url(#ff4dd6cbcf)"><path style=" stroke:none;fill-rule:nonzero;fill:#ffffff;fill-opacity:1;" d="M 7.957031 8.707031 L 368.542969 8.707031 L 368.542969 369.292969 L 7.957031 369.292969 Z M 7.957031 8.707031 "/></g></g><path style=" stroke:none;fill-rule:nonzero;fill:#59c9e9;fill-opacity:1;" d="M 182.898438 204.453125 C 182.898438 204.453125 233.171875 256.101562 203.042969 306.429688 C 172.914062 356.761719 58.648438 342.851562 22.136719 259.8125 C 22.136719 259.8125 54.839844 311.152344 129.753906 299.75 C 204.671875 288.347656 182.898438 204.453125 182.898438 204.453125 Z M 182.898438 204.453125 "/><g clip-rule="nonzero" clip-path="url(#aa82a6d7e0)"><path style=" stroke:none;fill-rule:nonzero;fill:#1c75bc;fill-opacity:1;" d="M 38.257812 251.632812 C 30.242188 243.632812 23.710938 234.707031 18.664062 225.199219 C 7.171875 203.550781 3.839844 178.523438 8.609375 154.480469 C 25.171875 70.953125 98.925781 8.011719 187.34375 8.191406 C 287.898438 8.394531 369.082031 89.996094 368.8125 190.570312 C 368.570312 278.929688 305.328125 352.472656 221.644531 368.632812 C 279.714844 345 320.65625 287.992188 320.65625 221.421875 C 320.65625 189.304688 311.125 159.417969 294.742188 134.429688 L 304.246094 128.675781 L 298.070312 122.5 L 279.605469 125.253906 C 275.359375 119.976562 270.339844 114.148438 264.980469 108.269531 L 309.273438 86.921875 L 297.277344 74.921875 L 240.289062 83.417969 C 224.878906 69.460938 215.335938 64.398438 212.6875 67.046875 C 210.035156 69.699219 215.097656 79.242188 229.054688 94.65625 L 220.558594 151.652344 L 232.558594 163.652344 L 253.898438 119.351562 C 259.777344 124.710938 265.605469 129.730469 270.882812 133.976562 L 268.128906 152.449219 L 274.304688 158.625 L 280.523438 147.84375 C 295.0625 169.316406 327.519531 282.464844 221.515625 342.601562 C 284.023438 290.523438 247.929688 204.453125 182.898438 204.453125 C 182.898438 204.453125 214.109375 293.214844 136.667969 314.15625 C 108.03125 321.898438 50.710938 309.375 22.136719 259.8125 C 23.386719 261.203125 24.675781 262.566406 26.011719 263.902344 C 61.84375 299.675781 117.351562 303.707031 157.621094 276.035156 C 117.792969 292 70.550781 283.875 38.257812 251.632812 Z M 38.257812 251.632812 "/></g><g clip-rule="nonzero" clip-path="url(#01a307bfd6)"><g clip-rule="nonzero" clip-path="url(#603a8f9a8a)"><g clip-rule="nonzero" clip-path="url(#41f74e10f7)"><g clip-rule="nonzero" clip-path="url(#adc4331886)"><path style=" stroke:none;fill-rule:nonzero;fill:#f9f5ff;fill-opacity:1;" d="M 96.445312 165.621094 C 96.4375 165.617188 96.433594 165.613281 96.425781 165.613281 L 86.136719 159.546875 C 87.132812 159.167969 88.304688 158.808594 89.621094 158.546875 C 89.71875 158.53125 89.808594 158.511719 89.902344 158.492188 C 92.460938 158.015625 95.558594 157.902344 99.050781 158.691406 C 108.796875 160.894531 118.40625 169.488281 127.132812 183.714844 Z M 91.160156 201.363281 L 84.339844 164.742188 L 93.136719 169.929688 C 100.027344 181.574219 95.082031 194.332031 91.160156 201.363281 Z M 77.28125 165.9375 L 76.71875 165.296875 L 74.632812 162.894531 C 75.199219 162.578125 75.773438 162.269531 76.347656 161.960938 L 78.351562 162.03125 L 78.75 164.164062 C 78.257812 164.75 77.765625 165.339844 77.28125 165.9375 Z M 31.195312 249.847656 C 31.316406 253.074219 31.558594 256.339844 31.917969 259.621094 L 21.734375 255.222656 C 22.449219 252.9375 23.207031 250.695312 24.003906 248.523438 L 27.808594 249.222656 Z M 72.964844 149.785156 L 76.238281 156.5625 L 44.171875 155.449219 C 49.542969 150.898438 59.804688 144.875 72.964844 149.785156 Z M 82.578125 136.835938 C 82.671875 137.0625 82.800781 137.277344 82.957031 137.472656 C 86.550781 143.6875 87.335938 149.175781 86.855469 153.664062 C 84.777344 154.222656 83.058594 154.945312 81.757812 155.601562 L 63.523438 117.835938 C 73.132812 124.640625 79.074219 131.046875 82.578125 136.835938 Z M 72.632812 168.808594 C 71.324219 170.554688 70.054688 172.339844 68.835938 174.144531 L 65.386719 170.808594 C 67.28125 169.535156 69.210938 168.300781 71.160156 167.117188 L 71.375 167.359375 Z M 60.53125 184.191406 L 55.742188 180.359375 C 57.871094 178.609375 60.054688 176.917969 62.277344 175.300781 L 63.621094 176.597656 L 64.46875 177.421875 C 63.09375 179.636719 61.773438 181.902344 60.53125 184.191406 Z M 52.484375 196.402344 L 45.871094 192.183594 C 48.230469 189.78125 50.683594 187.449219 53.195312 185.226562 L 56.375 187.769531 C 54.972656 190.601562 53.671875 193.492188 52.484375 196.402344 Z M 45.074219 210.574219 L 43.066406 209.605469 L 36.65625 206.507812 C 39.050781 203.40625 41.582031 200.394531 44.210938 197.519531 L 48.394531 200.1875 C 47.148438 203.601562 46.035156 207.078125 45.074219 210.574219 Z M 41.171875 214.675781 C 40.230469 218.675781 39.472656 222.730469 38.902344 226.789062 L 28.640625 223.371094 C 30.890625 219.515625 33.328125 215.757812 35.921875 212.140625 L 41.003906 214.59375 Z M 22.765625 242.8125 C 22.761719 242.808594 22.753906 242.808594 22.746094 242.808594 L 22.519531 242.765625 C 24.421875 238.113281 26.570312 233.550781 28.9375 229.152344 L 35.261719 231.257812 C 34.792969 235.820312 34.558594 240.417969 34.554688 244.984375 L 30.585938 244.253906 Z M 95.082031 116.296875 C 98.394531 123.121094 102.652344 136.789062 94.714844 152.734375 C 93.894531 152.710938 93.101562 152.730469 92.332031 152.777344 C 92.605469 147.8125 91.59375 141.964844 88.023438 135.519531 Z M 128.882812 159.050781 L 113.789062 159.929688 C 109.445312 156.683594 104.957031 154.523438 100.339844 153.460938 C 101.214844 151.539062 101.941406 149.652344 102.53125 147.800781 C 116.847656 148.585938 125.003906 154.878906 128.882812 159.050781 Z M 136.753906 189.871094 C 131.367188 179.371094 125.628906 171.066406 119.578125 164.992188 L 134.234375 164.136719 C 135.15625 164.085938 135.988281 163.5625 136.433594 162.75 C 136.882812 161.941406 136.882812 160.960938 136.4375 160.148438 C 136.0625 159.472656 127.386719 144.210938 103.890625 142.488281 C 107.640625 123.078125 97.203125 109.09375 96.65625 108.378906 C 96.058594 107.597656 95.082031 107.203125 94.113281 107.351562 C 93.140625 107.5 92.324219 108.164062 91.988281 109.085938 L 84.34375 129.90625 C 79.128906 123.03125 70.894531 115.617188 58.277344 107.972656 C 57.269531 107.363281 55.953125 107.480469 55.070312 108.28125 C 54.1875 109.085938 53.9375 110.375 54.457031 111.445312 L 69.816406 143.265625 C 49.542969 139.003906 35.957031 156.082031 35.808594 156.273438 C 35.1875 157.074219 35.066406 158.152344 35.496094 159.066406 C 35.78125 159.675781 36.273438 160.144531 36.871094 160.402344 C 37.171875 160.53125 37.5 160.609375 37.84375 160.621094 L 67.808594 161.660156 C 67.800781 161.691406 67.792969 161.722656 67.785156 161.753906 C 67.726562 162.121094 67.746094 162.488281 67.835938 162.835938 C 65.03125 164.554688 62.269531 166.371094 59.597656 168.261719 C 58.945312 168.726562 58.53125 169.457031 58.46875 170.253906 C 58.441406 170.617188 58.488281 170.976562 58.601562 171.3125 C 55.5625 173.550781 52.585938 175.914062 49.734375 178.371094 C 49.125 178.894531 48.785156 179.660156 48.796875 180.460938 C 48.804688 180.882812 48.914062 181.292969 49.105469 181.65625 C 45.84375 184.574219 42.683594 187.652344 39.6875 190.851562 C 39.140625 191.433594 38.882812 192.230469 38.980469 193.027344 C 39.050781 193.585938 39.296875 194.101562 39.667969 194.507812 C 36.394531 198.136719 33.265625 201.957031 30.355469 205.90625 C 29.882812 206.554688 29.71875 207.375 29.910156 208.15625 C 30.070312 208.808594 30.472656 209.367188 31.019531 209.738281 C 27.875 214.179688 24.953125 218.824219 22.316406 223.585938 C 21.929688 224.285156 21.871094 225.125 22.160156 225.871094 C 22.425781 226.542969 22.945312 227.078125 23.605469 227.363281 C 23.65625 227.386719 23.707031 227.402344 23.757812 227.421875 C 20.949219 232.722656 18.441406 238.238281 16.292969 243.863281 C 16.007812 244.609375 16.070312 245.445312 16.460938 246.144531 C 16.753906 246.664062 17.207031 247.066406 17.742188 247.296875 C 17.925781 247.375 18.121094 247.433594 18.324219 247.472656 L 18.632812 247.53125 C 17.980469 249.34375 17.355469 251.191406 16.761719 253.078125 L 3.089844 247.175781 C 1.722656 246.585938 0.136719 247.214844 -0.453125 248.582031 C -1.042969 249.949219 -0.410156 251.535156 0.953125 252.125 L 53.695312 274.886719 C 55.0625 275.476562 56.644531 274.847656 57.234375 273.480469 C 57.824219 272.113281 57.195312 270.527344 55.828125 269.9375 L 37.652344 262.09375 C 37.148438 258.324219 36.808594 254.5625 36.632812 250.847656 L 36.800781 250.882812 C 37.601562 251.027344 38.421875 250.808594 39.042969 250.277344 C 39.660156 249.75 40.003906 248.976562 39.984375 248.160156 C 39.855469 243.132812 40.039062 238.046875 40.507812 232.992188 C 41.222656 233.171875 41.984375 233.054688 42.609375 232.652344 C 43.292969 232.21875 43.746094 231.496094 43.835938 230.6875 C 44.363281 226.121094 45.144531 221.542969 46.167969 217.027344 C 46.773438 217.1875 47.421875 217.136719 47.996094 216.863281 C 48.730469 216.519531 49.273438 215.863281 49.46875 215.074219 C 50.472656 211.03125 51.691406 206.992188 53.101562 203.035156 C 53.601562 203.167969 54.136719 203.160156 54.640625 202.992188 C 55.410156 202.734375 56.023438 202.148438 56.3125 201.390625 C 57.644531 197.878906 59.15625 194.382812 60.816406 190.960938 C 61.1875 191.042969 61.582031 191.050781 61.964844 190.96875 C 62.753906 190.796875 63.429688 190.28125 63.796875 189.5625 C 65.285156 186.644531 66.90625 183.761719 68.625 180.953125 C 68.941406 181.035156 69.273438 181.0625 69.609375 181.023438 C 70.414062 180.929688 71.128906 180.476562 71.566406 179.796875 C 73.109375 177.382812 74.753906 175.003906 76.464844 172.6875 C 76.78125 172.800781 77.113281 172.859375 77.457031 172.847656 C 78.265625 172.824219 79.015625 172.441406 79.511719 171.800781 C 79.6875 171.574219 79.867188 171.347656 80.046875 171.117188 L 87.09375 208.960938 C 87.257812 209.851562 87.859375 210.589844 88.671875 210.941406 C 88.804688 211 88.941406 211.042969 89.078125 211.082031 C 90.097656 211.339844 91.171875 210.980469 91.832031 210.164062 C 92.492188 209.351562 105.945312 192.441406 100.9375 174.527344 L 132.984375 193.421875 C 133.085938 193.480469 133.1875 193.53125 133.289062 193.578125 C 134.265625 193.996094 135.414062 193.808594 136.203125 193.0625 C 137.078125 192.238281 137.300781 190.9375 136.753906 189.871094 "/></g></g></g></g></g></svg>